<svg version="1.2" xmlns="http://www.w3.org/2000/svg" viewBox="0 0 500 500" width="500" height="500">
	<title>logo_full</title>
	<style>
		.s0 { fill: #000000 } 
		.s1 { fill: #b0a700 } 
		.s2 { fill: #fff200 } 
	</style>
	<g id="Background">
		<path id="Path 0" class="s0" d="m52.1 18.2c-1.3 0.8-2.5 2.4-2.7 3.6-0.2 1.2-1 2.2-1.7 2.2-0.8 0-5.1 3.6-9.5 8-4.5 4.4-8.2 8.7-8.2 9.5 0 0.8-0.9 1.7-2 2-1.1 0.3-2 1.2-2 2 0 0.8-0.5 1.5-1 1.5-0.6 0-1 0.6-1 1.3 0.1 0.6-0.6 1.9-1.5 2.7-0.9 0.8-1.6 2.1-1.5 2.8 0 0.6 1 1.3 2.2 1.5 1.4 0.1 2.4 1 2.6 2.2 0.2 1.1-0.1 2.9-0.7 4-0.6 1.2-1.3 16.3-1.6 40-0.3 20.9-0.9 46.6-1.4 57-0.5 10.4-1.4 25.1-2 32.5-0.7 7.4-1.6 14.4-2 15.5-0.5 1.1-1.2 12.5-1.5 25.3-0.3 12.7-1 24-1.5 24.9-0.5 1-1.5 13.3-2.1 27.3-0.6 14-1.5 25.9-1.9 26.5-0.5 0.6-1.1 5.1-1.5 10-0.4 4.9-1.2 9.6-1.9 10.4-0.8 1-1.3 7.3-1.6 19.5-0.2 10-0.7 18.5-1.1 19.1-0.4 0.6-1.2 14.5-1.6 31-0.7 27.3-0.6 30.3 0.9 32.8 1.1 1.8 2.5 2.7 4.2 2.7 1.4 0 2.7 0.6 3 1.3 0.3 0.7 3.4 1.5 7 2 3.6 0.4 6.7 1.1 7 1.7 0.3 0.6 1.6 1 3 1 1.4 0 3.1 0.6 3.7 1.3 0.7 0.6 3.3 2.2 5.8 3.4 2.5 1.2 6 2.3 7.7 2.3 2.3 0 3.6 0.6 4.3 2 0.6 1.3 2 2 3.7 2 1.6 0 4.3 0.6 6 1.5 1.8 0.8 3.5 1.9 3.8 2.5 0.3 0.6 4 1.2 8.2 1.5 6 0.4 8.3 1 9.8 2.6 1.1 1.1 2.8 2 3.7 1.9 1 0 2 0.3 2.2 0.8 0.2 0.4 6.1 1 13 1.5 6.9 0.4 12.6 1 12.6 1.5 0 0.4 1.2 1.3 2.8 2 1.5 0.7 4 1.2 5.7 1.2 1.7 0 3.6 0.5 4.3 1.2 0.8 0.8 5.2 1.5 11.4 1.8 5.5 0.3 10.2 0.8 10.4 1.3 0.2 0.4 5.9 0.7 12.6 0.7 11.2-0.1 12.6 0.1 15.3 2.2 2.7 2 4.5 2.3 17.9 2.8 8.1 0.3 15 0.8 15.2 1.3 0.2 0.4 2 0.7 3.9 0.7 1.9 0 3.7 0.4 4 1 0.3 0.6 18.5 1 51.5 1 33.3 0 51-0.3 51-1 0-0.6 1.6-1 3.5-1 1.9 0 3.7-0.3 3.9-0.7 0.2-0.5 7.3-1.2 15.7-1.6 12.4-0.6 15.8-1.1 17.3-2.5 1.6-1.5 5.1-1.7 30.5-2.1 15.7-0.2 29-0.7 29.6-1.2 0.5-0.5 4.3-0.9 8.5-0.9 4.7 0 8.6-0.6 10.5-1.5 1.6-0.9 4.7-1.5 6.7-1.5 2.1 0 3.8-0.4 3.8-1 0-0.6 5.4-1 14.3-1 7.9 0 14.7-0.4 15.3-0.9 0.5-0.6 3.6-1.1 6.9-1.3l6-0.3c0-62.3-0.3-70.7-1.3-71.7-0.9-1-1.2-6.8-1.2-23 0-12 0.4-22.6 0.9-23.5 0.5-1 1.4-11 2-22.3 0.6-11.3 1.6-20.9 2.1-21.5 0.6-0.6 1-2.9 1-5.2 0-2.4 0.4-4.3 1-4.3 0.6 0 1-8.2 1-22.5 0-14.3-0.4-22.5-1-22.5-0.6 0-1-3.3-1-8 0-4.4-0.3-8.2-0.8-8.4-0.4-0.2-1.3-6.2-2.1-13.2-0.7-7.1-1.7-13.3-2.1-13.9-0.5-0.6-1.1-4.6-1.5-9-0.4-4.4-1.1-8.2-1.6-8.5-0.5-0.3-1.2-4.9-1.6-10.3-0.5-5.3-1.1-9.7-1.6-9.7-0.4 0-1-1.2-1.3-2.7-0.4-1.6-1-30.9-1.3-65.3l-0.6-62.4-5-2.4c3.7-1 4.4-1.8 4.2-2.9-0.2-1.6-1.2-1.8-7.2-1.5-3.9 0.2-7.4 0.7-8 1.2-0.6 0.5-9.7 1.3-20.3 1.7-10.7 0.5-19.6 1.1-19.8 1.6-0.2 0.4-5.1 0.7-10.9 0.7-6 0-10.7 0.4-11 1-0.3 0.5-2.4 1-4.8 1-2.4 0-4.9 0.6-5.6 1.3-0.9 0.9-13.1 1.2-54.1 1.2-41.3 0-53.2-0.3-54.2-1.3-0.9-0.9-5-1.2-13.5-1.2-7.2 0-12.5-0.4-12.8-1-0.3-0.5-3.7-1-7.5-1-3.8 0-7.2-0.3-7.4-0.7-0.2-0.5-9.8-1.1-21.3-1.4-12.3-0.4-21.7-1.1-23-1.8-1.3-0.6-9.4-1.4-18-1.8-11.8-0.5-16.1-1-16.8-2-0.6-0.8-3.7-1.7-7.5-2-3.6-0.3-6.9-0.9-7.5-1.4-0.6-0.4-6.8-1.1-13.9-1.6-7-0.4-13-1.1-13.2-1.5-0.2-0.5-1.2-0.8-2.1-0.8-1 0-2.5-0.7-3.3-1.6-1.2-1.2-6.6-1.6-31.5-2-24.2-0.4-30.5-0.3-32.4 0.8z"/>
		<path id="Path 1" class="s1" d="m52.8 25.9c-1 1.7-2.8 3.4-4 3.8-1.3 0.3-5.6 3.9-9.5 8-4.7 4.6-7 7.8-6.6 8.6q0.8 1.2-0.5 0.5c-0.7-0.5-1.6 0-2.2 1.2-1 2-0.6 2 34.8 2.3 31.2 0.2 36.1 0.4 38.2 1.8 1.4 0.9 5.2 1.9 8.5 2.2 3.3 0.3 10.3 1.1 15.5 1.6 5.2 0.6 12.4 1.5 16 2 3.6 0.6 9.2 1.5 12.5 2 3.3 0.6 6.4 1.5 7 2.1 0.6 0.6 3.7 1.1 7 1.1 3.3 0 9.6 0.5 14 1 4.4 0.5 11.6 1.2 16 1.4 4.4 0.2 18.1 0.8 30.5 1.3 12.4 0.5 40.3 1 62 1 21.7 0 46.7-0.4 55.5-0.9 8.8-0.4 17.6-1.1 19.5-1.4 1.9-0.3 7.9-0.8 13.3-1 5.5-0.3 9.7-0.9 9.7-1.5 0-0.5 1.9-1.5 4.3-2.1 2.3-0.6 5.8-1.5 7.7-1.9 1.9-0.5 8-1.2 13.5-1.5 5.5-0.4 11.6-0.7 13.5-0.8 1.9-0.1 4.4 0.2 5.5 0.6 1.5 0.5 3.2-0.3 6.8-3.3 3.2-2.7 5.7-4 7.7-4 1.6 0 3.2-0.3 3.4-0.7 0.2-0.5 1.6-1.1 3.2-1.6 1.6-0.4 5.8-2.2 9.4-4 3.6-1.7 6.8-3.7 7.2-4.2 0.4-0.5 0.8-1.6 0.8-2.2 0-0.8-0.7-1.1-1.7-0.8-1 0.3-6.5 1-12.3 1.6-5.8 0.5-19.5 1.4-30.5 2-12 0.5-20.8 1.4-22 2.1-1.1 0.7-7.9 1.9-15 2.6-7.1 0.8-28.3 1.6-47 1.9-21.3 0.3-35.3 0-37.5-0.6-1.9-0.5-13.6-1.3-26-1.7-17.5-0.5-23.1-1-25-2.1-1.9-1.2-7.7-1.8-24-2.4-11.8-0.4-27.3-1.5-34.5-2.4-7.2-0.8-17.5-1.5-23-1.5-9 0.1-10.3-0.1-13-2.2-2.2-1.7-5.3-2.6-13-3.6-5.5-0.7-14.1-1.7-19-2.1-5.2-0.4-10.5-1.5-12.5-2.5-3-1.5-7.5-1.8-33-2.3l-29.5-0.6zm418.3 21c-2 0.9-4.7 2.6-6.1 3.7-1.3 1.1-4.1 2.4-6.2 2.8-2.1 0.4-3.8 1-3.8 1.4 0 0.4-0.5 0.9-1.2 1-0.7 0.1-2.6 0.5-4.3 0.9-1.6 0.4-5.2 2.2-8 4.1-2.7 1.8-5.3 3.3-5.7 3.3-0.4 0-0.7 5.7-0.7 12.7 0 9.2 0.4 13.5 1.4 15.3 1.3 2.1 1.5 13.6 1.5 72.2 0 63.9 0.2 70.2 1.8 74.5 1.6 4.3 1.7 10 1.7 63.3 0 50.1-0.2 58.8-1.4 61-1.2 1.9-1.6 6.9-1.8 22.5-0.2 14-0.7 21.5-1.8 25-0.8 2.9-1.6 10.2-1.8 17.5-0.2 9.3-0.7 13.3-2 15.7-1.2 2.4-1.7 5.8-1.7 13.3v10c9.7-0.9 13.7-2 15-2.9 1.9-1.2 6.1-1.8 17-2.3 8-0.3 16.1-1 18-1.4 2-0.4 3.9-1.2 4.3-1.8 0.4-0.6 0.7-14.7 0.7-31.4 0-24.8-0.2-30.9-1.5-34-1.2-3-1.4-7.3-1.1-23.2 0.2-10.8 0.9-27.4 1.6-37 0.6-9.9 1.7-19.5 2.6-22 0.8-2.5 1.7-7 1.9-10 0.2-3.1 0.8-7.6 1.5-10 0.7-2.8 1-10.7 0.8-21-0.2-9.1-0.8-17.7-1.2-19-0.5-1.4-1.1-6.8-1.2-12-0.2-5.3-1-11.8-1.8-14.5-0.8-2.8-2-8.9-2.5-13.5-0.6-4.7-1.3-9.9-1.6-11.5-0.3-1.7-0.7-5.3-0.9-8-0.2-2.8-1.1-7.1-2-9.5-0.8-2.5-1.5-6.7-1.5-9.3 0-2.6-0.8-6.4-1.8-8.5-1.5-3.3-1.8-9.6-2.2-61.4l-0.6-57.6zm-275.9 24.1c-0.1 0.6 2.6 1 5.9 1 3.4 0 6-0.4 6-1 0-0.6-2.6-1-6-1-3.3 0-6 0.4-6 1zm-177.6 217c0 4.1 0.2 5.9 0.4 4 0.2-1.9 0.2-5.3 0-7.5-0.2-2.2-0.4-0.6-0.4 3.5z"/>
		<path id="Path 2" class="s2" d="m30.4 56.2c-0.5 0.7-1.2 18.6-1.6 39.8-0.4 21.2-0.7 39.5-0.8 40.8 0 1.2-0.4 2.2-1 2.2-0.6 0-1 7.1-1 19.3-0.1 10.5-0.5 20.5-1 22.2-0.5 1.7-1.4 9.8-1.9 18-0.6 8.3-1.1 20.7-1.1 27.8 0 7-0.4 13.5-0.9 14.5-0.5 0.9-1.2 9.1-1.6 18.2-0.3 9.1-0.9 17.2-1.2 18-0.4 0.8-0.6 5.2-0.5 9.8 0.1 4.5-0.1 8.2-0.5 8.2-0.5 0-1 3.5-1.1 7.7-0.2 4.3-0.8 8.6-1.3 9.6-0.5 0.9-0.9 3.6-1 6 0 2.3-0.7 7.6-1.5 11.7-1 4.7-1.9 17.8-2.5 35.5-0.5 15.4-1.3 29.9-1.9 32.3-0.5 2.3-1 11-1 19.2v15c4.3 0 6.2 0.7 7 1.5 0.8 0.9 4 1.8 7 2.1 3 0.3 6.3 1 7.3 1.5 0.9 0.5 2.6 0.9 3.7 0.9 1.1 0 2.2 0.7 2.5 1.5 0.3 0.8 2.3 1.9 4.5 2.5 2.2 0.6 4.2 1.4 4.5 2 0.3 0.6 1.7 1 3.3 1 1.5-0.1 3.9 0.8 5.5 2 1.5 1.1 3.4 2 4.2 2 0.8 0 3.3 0.9 5.5 2 2.2 1.1 5.6 2 7.5 2 1.9 0 3.7 0.4 4 1 0.3 0.6 2.2 1 4.3 1q3.7 0 6 2.3c1.9 1.7 3.8 2.3 9 2.5 3.7 0.2 8.5 1 10.7 1.9 2.3 0.9 5.5 1.3 7.5 1 2.5-0.4 4.2 0 6 1.4 1.4 1.1 3.5 2 4.8 1.9 1.2 0 4.8 0.7 8 1.5 3.4 0.9 13.2 1.8 24.2 2.2 16.9 0.6 18.9 0.9 23 3.1 3.9 2.1 6.4 2.5 19.5 3.2 8.3 0.4 16.6 1.2 18.5 1.9 2.4 0.8 18.6 1.1 52.3 1.1 38.6 0 49.9-0.3 54.5-1.4 3.1-0.8 11.9-1.7 19.5-2 9.5-0.4 14.5-1.1 16.2-2.1 1.4-0.8 2.5-1.2 2.5-0.7-0.1 0.4 0.5 0.1 1.2-0.6 0.7-0.6 3.3-1.2 5.8-1.3 2.5 0 15.5-0.3 29-0.7 16.6-0.5 25.2-1.1 26.8-1.9 2.1-1.2 2.2-2 2.2-11.3 0-7.2 0.4-10.6 1.5-12.2 1-1.5 1.8-6.9 2.5-15.3 0.5-7.1 1.4-16.1 2-20 0.6-3.9 1.5-9.2 2-12 0.5-2.7 1.3-13.8 1.7-24.5 0.4-10.7 0.7-42.7 0.7-71 0-28.3-0.6-64.3-1.3-80-0.6-15.7-1.5-53.6-1.9-84.2-0.5-42.8-1-56-2-57-0.8-0.9-1.2-4.4-1.2-10.5 0-7-0.3-9.3-1.3-9.3-0.7 0-1.7 0.5-2.2 1-0.6 0.6-7.3 1.5-15 2-12.1 0.8-14.4 1.2-17 3.1-1.6 1.2-4.8 2.4-7 2.6-2.2 0.1-7.4 0.5-11.5 0.8-4.1 0.3-9.1 0.8-11 1.1-1.9 0.3-10.9 0.9-20 1.3-9.1 0.5-32.7 0.9-52.5 0.9-19.8 0-46.3-0.4-59-0.9-12.6-0.4-26.3-0.8-30.2-0.8-4-0.1-7.3-0.4-7.3-0.8 0-0.5-3.3-0.9-7.3-1.1-3.9-0.2-8-0.8-8.9-1.3-1-0.5-5.1-0.9-9-0.9-4.7 0-8-0.5-9.3-1.4-1.1-0.8-6-1.7-11-2.1-5.5-0.5-10.5-1.5-12.7-2.6-3.2-1.6-6.2-1.9-18-1.9-10.8 0-14.7-0.4-15.8-1.4-0.8-0.8-3.5-1.7-6-2.1-2.5-0.4-18.3-0.9-35.2-1.2-24.1-0.3-30.8-0.1-31.4 0.9z"/>
	</g>
	<path id="Path 0" fill-rule="evenodd" class="s0" d="m199.8 97.5c1.2 0.3 4 2 6.2 3.8 2.2 1.7 4.1 4.3 4.4 5.7 0.2 1.4-0.1 5-0.8 8-0.6 3-1.7 6.4-2.3 7.5-0.6 1.1-1.4 3.8-1.8 6-0.4 2.2-1.1 4.4-1.5 5-0.4 0.6-1.5 4.8-2.5 9.5-0.9 4.7-2.8 11.9-4.1 16-1.3 4.1-3.3 9.3-4.4 11.5-1.2 2.2-2.6 4.6-3.3 5.3-0.7 0.7-0.9 1.5-0.5 1.7 0.5 0.3-1.3 4.7-3.8 9.8-2.6 5-4.8 9.6-4.9 10.2-0.1 0.6-0.7 2.8-1.3 5-0.6 2.2-3.3 8.3-6 13.5-2.7 5.2-5.2 11-5.6 12.8-0.3 1.8-1.9 4.3-3.6 5.7-2.3 1.9-4.1 2.5-8 2.5-4.5 0-5.4-0.4-9.4-4.3-2.4-2.3-5.5-6.2-6.9-8.7-1.4-2.5-3.3-5.2-4.2-6-1-0.8-3.5-5.1-5.6-9.5-2.2-4.4-4.9-9.6-6-11.5-1.2-1.9-2.4-3.8-2.7-4.3-0.4-0.4-2.1 1.7-3.7 4.8-1.7 3-3.9 7.2-5 9.3-1.1 2.1-4.1 6.9-6.7 10.7-2.6 3.9-4.8 7.4-4.8 8 0 0.6-2.3 3.5-5 6.5-2.7 3-5 5.8-5 6.2 0 0.5-1.8 1.7-4 2.8-2.2 1.1-5.2 2-6.8 2-1.5 0-4.1-0.4-5.7-0.9-1.7-0.6-3.8-2.2-4.8-3.6-0.9-1.4-2.5-6-3.5-10.3-1-4.2-2.1-8.1-2.4-8.7-0.4-0.6-0.9-3.7-1.3-7-0.3-3.3-1.2-8.5-2-11.5-0.8-3-1.6-8.2-1.7-11.6-0.2-3.3-0.8-6.7-1.5-7.5-0.6-0.8-1.4-5.5-1.7-10.4-0.3-4.9-1-10.3-1.6-12-0.6-1.7-1.2-6.1-1.3-9.8-0.1-3.7-0.7-7.1-1.3-7.5-0.6-0.4-1-4-0.8-9.2 0.1-4.7-0.1-10.5-0.6-13-0.4-2.5-0.4-5.8 0.1-7.5 0.5-1.7 1.9-4.1 3.2-5.3 1.2-1.3 3.7-3 5.4-3.8 2.6-1.1 4-1.2 6.5-0.3 1.8 0.7 4.1 1.9 5.2 2.8 1 0.9 2.2 2.4 2.7 3.3 0.5 1 1.2 5.1 1.5 9 0.3 4 0.6 10.2 0.6 13.8-0.1 3.8 0.6 8 1.5 10 0.8 1.9 1.2 4.5 0.9 5.7-0.3 1.3 0.1 5.2 0.9 8.8 0.8 3.6 1.6 9.1 1.7 12.2 0.1 3.2 0.8 7.3 1.5 9 0.7 1.8 1.3 4.9 1.3 6.8 0 1.9 0.4 5.4 1 7.7 0.5 2.4 1.2 5.5 1.5 7 0.3 1.6 0.9 2.6 1.5 2.3 0.5-0.3 1.5-2.2 2.2-4.3 0.6-2 2.6-5.6 4.5-8 1.8-2.3 3.3-4.8 3.3-5.5 0-0.6 1.3-3.2 3-5.7 1.6-2.5 3.4-6.1 4-8 0.5-1.9 3.3-6 6.2-9 4-4.2 6.4-5.8 9.8-6.7 2.9-0.7 5.3-0.8 6.7-0.2 1.3 0.5 3.6 2.2 5.3 3.9 1.8 1.8 3.2 4.5 3.6 6.7 0.4 2.1 2.7 7.4 5.2 11.8 2.5 4.4 4.8 8.2 5.1 8.5 0.3 0.3 1.3 2.1 2.2 4 0.9 1.9 2.2 5 3 6.8 0.8 1.7 1.7 3.2 2.1 3.2 0.5 0 1.3-1.7 1.9-3.8 0.7-2 2-5.5 2.9-7.7 1-2.2 3-6.9 4.5-10.5 1.5-3.6 3.1-7.4 3.6-8.5 0.5-1.1 1.7-3.3 2.7-5 1-1.7 2.2-4.3 2.6-6 0.4-1.7 1.6-4.8 2.6-7 1-2.2 2.1-6.3 2.5-9 0.3-2.8 1.7-8.3 3.1-12.3 1.3-3.9 2.4-8 2.4-9 0-0.9 0.6-3.3 1.3-5.3 0.6-2 1.5-4.1 2-4.5 0.4-0.5 0.7-1.7 0.7-2.7 0-0.9 1.1-3.1 2.3-4.8 1.3-1.8 3.9-3.8 5.8-4.5 1.9-0.8 4.4-1.1 5.6-0.9zm201 215.1c4.4 0.2 8.5 1.1 10.4 2.2 1.7 0.9 4.2 2.3 5.5 3 1.3 0.6 3.4 2.7 4.6 4.5 1.1 1.7 2.1 4.6 2.1 6.2 0 1.6-0.8 4.5-1.7 6.3-0.9 1.7-2.6 3.9-3.9 4.7-1.2 0.8-4.2 1.5-6.7 1.5q-4.5 0.1-7.3-2c-1.5-1.1-4.1-2-5.7-2q-3 0-4.5 2.3c-0.8 1.2-1.5 3.7-1.5 5.5 0 2.8 0.4 3.3 3.7 4.3 2.1 0.7 6.9 2.7 10.8 4.6 3.9 1.9 8 4.6 9.3 6.1 1.2 1.5 3.1 4.5 4.1 6.7 1.1 2.2 2.2 4.9 2.5 6 0.4 1.1 0.8 5.1 1.1 9 0.3 5.1 0 8.2-1.2 11.5-1 2.5-3.6 7-5.9 10-2.3 3-4.8 6-5.5 6.7-0.8 0.6-3.2 1.6-5.4 2.1-2.2 0.6-4.7 1.8-5.5 2.7-0.8 0.9-2.6 1.6-4.1 1.5-1.4 0-2.9 0.5-3.5 1-0.5 0.6-6.8 1.4-13.9 1.9-7.1 0.4-13.5 0.4-14-0.1-0.6-0.5-1.9-0.8-3-0.8-1.1 0-3.8-1.4-5.9-3.2-3.4-2.9-3.9-3.8-4-7.8 0-2.6 0.7-5.6 1.7-7.2 0.9-1.6 3.2-3.7 4.9-4.9 2.6-1.5 4.2-1.9 7.3-1.4 2.2 0.4 6 0.8 8.5 0.9 2.5 0.2 6.7-0.2 9.5-0.7 2.7-0.5 6.2-1.8 7.7-2.8 1.6-1.1 3.2-1.9 3.8-1.9 0.5 0 1.7-1 2.5-2.2 1-1.5 1.4-3.6 1-6-0.3-2.6-1.2-4.2-2.8-5-1.2-0.7-3.6-1.4-5.2-1.6-1.6-0.2-4.8-1.3-7-2.4-2.2-1.2-5.5-3.3-7.4-4.7-1.9-1.4-4.6-4.4-6.1-6.6-2-2.9-2.9-5.5-3.1-9.5-0.1-3 0.1-7.5 0.5-10 0.4-2.5 1.3-6.1 1.9-8 0.6-1.9 2.3-5.3 3.8-7.5 1.4-2.2 4-5.5 5.8-7.2 2.2-2.3 4.4-3.5 7.3-3.9 2.4-0.3 5-1 5.8-1.4 0.8-0.5 4.8-0.6 8.7-0.4zm-49.2-204.1c1.6 0.3 4 1.2 5.2 2 1.3 0.8 3.1 2.7 4 4.2 0.9 1.6 1.7 4.4 1.6 6.3 0 1.9-1.2 5.7-2.8 8.5-1.5 2.7-3 5.4-3.4 6-0.4 0.6-1.2 3.2-1.9 6-0.6 2.7-2.1 8.8-3.2 13.5-1.1 4.7-2.4 10.8-3.5 18.7l9.5-0.3c7.6-0.3 10.6 0 15 1.6 3.5 1.3 7 3.6 9.7 6.3 2.2 2.3 5.5 6.8 7.2 9.9 1.7 3.2 3.7 8.2 4.4 11 0.7 2.9 1.2 8.9 1.1 13.3-0.1 6.2-0.7 9.6-3 15.3-1.6 4.1-3.8 8.2-4.9 9.2-1.1 1-4.7 2.8-8 4-3.3 1.2-10.5 3-16 4.1-5.6 1-14.5 1.9-30.5 1.9l-3.3-3.3c-1.7-1.9-4.9-5.3-7-7.5-2-2.3-3.7-5-3.8-6-0.1-0.9-0.2-4.9-0.3-8.7-0.1-3.8 0.4-10.7 1.1-15.3 0.7-4.5 1.1-8.5 0.9-9-0.3-0.4 0-3.9 0.5-7.7 0.6-3.8 1.2-8.8 1.3-11 0.2-2.2 0.9-7.6 1.5-12 0.6-4.4 1.6-9.8 2.1-12 0.5-2.2 2.4-10.1 4.1-17.5 2-8.7 4-15 5.7-17.8 1.5-2.3 3.6-5.7 4.7-7.5 1.1-1.8 3.6-4 5.5-5 2.2-1.1 4.6-1.6 6.5-1.2zm-8.1 98.8c-0.4 4.5-0.7 10.3-0.8 12.9-0.1 3.9 0.2 4.8 1.9 5.2 1.1 0.3 5.6-0.2 10-1 4.4-0.8 9-1.7 10.2-1.9 1.3-0.3 3-1.2 3.8-2 1.1-1.1 1.4-3.1 1.2-7.2-0.2-3.8-1.2-7.4-2.8-10.3l-2.4-4.5c-12.4-0.2-17-0.1-18.2 0.2-2.1 0.4-2.3 1.1-2.9 8.6zm-89.9-61.8c4.9 0.2 10.6 0.8 12.5 1.3 1.9 0.5 5.3 1.9 7.5 3.1 2.2 1.2 6.4 4.3 9.4 6.9 3 2.6 7.6 8.1 10.3 12.2 2.6 4.1 4.9 8.4 4.9 9.5 0.1 1.1 0.3 3.6 0.4 5.5 0.1 1.9-0.4 6-1.2 9-0.8 3-1.8 5.9-2.3 6.5-0.4 0.6-1 2.2-1.4 3.8-0.3 1.6-2.6 4.3-5.4 6.5-2.6 2.1-6.3 4.8-8.2 6-3.2 1.9-4.9 2.1-19 2.2-11.6 0-16.6-0.4-20-1.5-2.5-0.9-6.4-2.5-8.8-3.5-2.3-1.1-4.4-1.8-4.7-1.5-0.3 0.3 0.7 2.1 2.2 4 1.6 1.9 3.1 3.5 3.5 3.5 0.5 0 2 0.9 3.5 2 1.6 1.1 6.2 2.6 10.3 3.3 4.1 0.8 10.9 1.3 15 1.1 6.5-0.3 7.8-0.6 10-2.9 1.5-1.6 4-2.7 6.5-3.1 2.8-0.4 5 0 7.4 1.3 1.8 1 4.2 3.4 5.2 5.3 1.1 1.9 1.9 4.5 1.9 5.8 0 1.2-0.6 3.4-1.4 5-0.7 1.5-3.3 4.3-5.7 6.2-2.4 1.9-6.1 4.3-8.4 5.3-3.1 1.4-6.6 1.8-16 1.7-6.6 0-14.7-0.5-18-1-3.3-0.6-8.3-1.7-11-2.5-2.8-0.8-5.7-2.1-6.5-3-0.8-0.9-1.8-1.6-2.3-1.5-0.4 0-2.6-1.3-5-2.9-2.3-1.5-6.5-5.9-9.3-9.7-2.9-3.8-5.9-9.2-6.7-11.9-0.9-3.1-1.3-7.5-1.1-11.5 0.2-3.6 0.9-8.3 1.5-10.5 0.5-2.2 1.9-6.3 3.1-9 1.1-2.8 3.8-8.8 6.1-13.5 2.5-5.3 6-10.6 9.1-13.9 2.8-2.9 6.9-6.5 9.1-7.9 2.2-1.4 6.2-3.4 9-4.3 3.7-1.2 7.4-1.6 14-1.4zm-12.8 29.4c-1.6 1.4-4 4.7-5.3 7.4l-2.4 4.7c6.2 1.6 9.5 2.9 11.2 4 2.7 1.6 5.3 2.1 14 2.3 6 0.1 11.3-0.2 12.1-0.8 0.7-0.6 1.9-2.3 2.6-4 1.1-2.6 1-3.4-0.5-6-1-1.7-2.9-4.3-4.3-5.8-1.4-1.6-4.3-3.7-6.4-4.8-2.3-1.2-5.7-1.9-9-1.9-2.8 0-6.1 0.6-7.2 1.2-1.1 0.6-3.3 2.2-4.8 3.7zm-199.5 94.1c1 0 3.3 0.6 5 1.4 1.8 0.7 4.8 3.1 6.6 5.2 1.8 2.1 4.3 5.9 5.6 8.4 1.3 2.5 3.6 6.9 5 9.8 1.4 2.8 3.5 6.2 4.7 7.5 1.1 1.2 3.3 4.5 4.8 7.2 1.5 2.8 4.2 6.4 5.8 8 1.6 1.6 3.9 5 5.1 7.5 1.1 2.5 3.3 5.9 4.9 7.5 1.5 1.7 4 4.5 5.5 6.3 1.6 1.8 2.9 2.9 2.9 2.5 0.1-0.5 0.3-6 0.5-12.3 0.2-6.3 0.8-12.9 1.4-14.5 0.5-1.6 0.9-4.4 0.9-6-0.1-1.6 0.2-7.3 0.5-12.5 0.4-5.2 1.2-11.1 1.7-13 0.6-1.9 1.6-4.8 2.2-6.3 0.7-1.7 2.8-3.7 4.9-4.8 2.1-1 4.6-1.9 5.5-1.9 1 0 3.4 0.6 5.3 1.4 1.9 0.7 4.2 2.4 5.1 3.7 0.9 1.3 1.8 3.3 2.1 4.4 0.3 1.1 0.2 3.8-0.4 6-0.5 2.2-1.1 6.9-1.3 10.5-0.2 3.6-0.6 9.6-0.9 13.5-0.3 3.9-0.9 8.4-1.4 10-0.5 1.6-0.8 6.1-0.7 10 0.1 3.9-0.1 9.7-0.6 13-0.4 3.3-1 9.9-1.3 14.8-0.3 4.8-0.8 9.1-1.1 9.7-0.3 0.6-0.7 3.6-1 6.8-0.3 3.1-1 7.4-1.5 9.5-0.6 2.1-2.3 4.8-4 6.2-2.3 1.9-4.1 2.5-8 2.5-3.9 0-5.7-0.6-8-2.5-1.7-1.4-3.3-3.5-3.6-4.7-0.4-1.3-1.9-5.1-3.5-8.5-1.6-3.5-3.4-6.3-3.9-6.3-0.5 0-1.8-1.5-2.8-3.4-0.9-1.9-4.2-6.5-7.3-10.2-3.1-3.8-7.1-9.1-9-11.9-1.9-2.7-4.1-6.2-4.9-7.6-0.8-1.5-3.5-5.2-6-8.3-3.7-4.5-4.6-5.2-5.2-3.8-0.4 0.9-0.7 3.4-0.7 5.5-0.1 2-0.8 7.6-1.6 12.5-0.8 4.8-1.8 12.5-2.1 17.2-0.4 4.7-0.8 11.4-0.9 15-0.1 3.6-0.3 7.5-0.4 8.8 0 1.2-1.6 3.9-3.5 6-3.1 3.3-3.9 3.7-8.5 3.7-4.2 0-5.5-0.5-8.1-3-1.7-1.6-3.4-4.2-3.8-5.8-0.4-1.5-0.6-5.7-0.6-9.5 0.1-3.7 0.5-10.8 0.8-15.7 0.4-4.9 1.4-13.1 2.2-18 0.8-4.9 1.2-9.2 1-9.5-0.3-0.3 0-1.9 0.5-3.5 0.5-1.6 1.4-7.3 2-12.5 0.6-5.2 1.2-12.6 1.4-16.5 0.2-3.9 0.6-10.1 0.9-14 0.3-3.9 1.2-8 2.1-9.2 0.8-1.3 3-3.2 4.7-4.3 1.8-1.1 4.1-2 5-2zm210.3 4.5c1.6 0.3 4 1.2 5.2 2 1.3 0.8 3.1 2.7 4 4.3 1.2 1.8 1.7 4.4 1.5 8.2-0.1 3-0.4 9.7-0.7 14.8-0.4 8.2-0.3 9.2 1.2 9.6 1 0.2 3.4 0.5 5.3 0.5 2.2 0 4.4 0.9 5.9 2.3 1.3 1.3 3 3.8 3.7 5.6 0.8 1.7 1.4 4.6 1.4 6.2 0 1.7-1.1 4.3-2.5 6-1.5 1.8-4.1 3.4-6.8 4.1-2.3 0.6-5.3 0.8-9.2 0.1l0.1 10.6c0.1 5.9 0.2 10.7 0.3 10.7 0.1 0 0.4 2.3 0.6 5 0.3 2.8 0.7 9.3 1 14.5 0.2 5.2 0.8 9.9 1.3 10.5 0.4 0.6 0.7 2.8 0.6 5-0.2 2.2-0.3 5-0.3 6.3-0.1 1.2-1.6 3.8-3.5 5.7-2.9 3-4 3.5-8.2 3.5-3.6 0.1-5.7-0.5-7.8-2.2-1.6-1.3-3.5-3.8-4.3-5.5-0.7-1.8-1-4.3-0.7-5.5 0.3-1.3 0-4.1-0.6-6.3-0.7-2.2-1.4-7.1-1.5-11-0.2-3.9-0.6-10.6-1-15-0.4-4.4-0.7-12.2-0.8-17.4-0.2-7.2-0.5-9.6-1.7-10.2-0.8-0.4-6.2-1.7-12-3-7.2-1.5-12-2-15.3-1.5-4.4 0.6-4.9 0.4-8.8-3.1-3.7-3.4-4.1-4.3-4.1-8.3 0-2.9 0.7-5.4 2-7 1-1.4 3.2-3.3 4.8-4.2 1.6-1 4.9-1.9 7.4-2.2 2.5-0.2 6.7 0 9.5 0.4 2.7 0.5 8 1.5 18.4 3.5l0.5-6c0.3-3.3 0.8-9.8 1.1-14.5 0.3-6 1-9.2 2.3-11 1-1.4 3.4-3.3 5.3-4.3 2.2-1.1 4.5-1.6 6.4-1.2zm-88.9 48.2c5.5 0.1 11.5 0.4 13.4 0.7 1.9 0.3 6.4 2 10 3.8 4.2 2.1 9.1 5.8 13.7 10.5 5.5 5.5 7.6 8.4 8.4 11.6 0.6 2.3 1.3 6.2 1.6 8.7 0.2 2.5 0.4 6.1 0.5 8 0.1 1.9-0.5 6.9-1.1 11-0.7 4.1-1.9 9.5-2.7 12-1 3-3 6.1-11.4 14l-10.3-0.1c-5.6-0.1-12.1-0.6-14.5-1-2.3-0.5-6.6-2-9.5-3.3-2.8-1.3-6.2-2.6-7.5-3-1.2-0.3-5.5-3.9-9.5-7.8-6.4-6.3-7.6-8.2-9.5-14-1.2-3.8-1.9-7.6-1.6-8.5 0.3-1 0.3-2.5-0.1-3.3-0.4-0.8-0.8-2.9-0.9-4.5-0.1-1.6 0.4-5.2 1-8 0.7-2.7 1.9-6.8 2.9-9 0.9-2.2 2.2-5.4 3-7 0.7-1.6 2.4-4 3.7-5.1 1.3-1.2 4.2-3 6.4-4 3.3-1.5 6.3-1.9 14-1.7zm-1.7 27.3c-2.2 0-2.9 0.7-3.9 3.8-0.6 2-0.8 4.4-0.4 5.2 0.4 0.8 0.6 1.9 0.5 2.5-0.1 0.6 0 2 0.3 3.3 0.3 1.2 2.3 3.8 4.3 5.8 2.1 2 5.4 4.3 7.3 5.1 1.9 0.8 6 1.6 9 1.9l5.5 0.4c1.8-8.9 2.2-12.9 2-14.5-0.1-1.6-0.3-3.6-0.4-4.2 0-0.7-1.3-2.7-2.9-4.4-1.5-1.8-3.8-3.7-5.2-4.4-1.4-0.7-4.3-1.5-6.5-1.9-2.2-0.3-4.7-0.2-5.5 0.4-0.8 0.5-2.7 1-4.1 1zm153.1-25.5c3 0.1 6.5 0.7 7.7 1.4 1.3 0.6 4.2 1.2 6.5 1.3 3.6 0.2 5 0.9 8.5 4.5 2.4 2.4 4.7 5.4 5.3 6.8 0.6 1.4 1.1 6.7 1.2 11.8 0.1 5-0.4 11-1 13.2-0.8 2.9-2.7 5.4-6.9 9-3.2 2.8-7.6 5.7-9.8 6.4-2.9 1-6.5 1.1-13 0.6-4.9-0.4-10.6-0.8-12.5-0.8-2.6-0.2-3.5 0.2-3.7 1.6-0.2 0.9 1.7 3.8 4.1 6.5 3.3 3.6 5.3 4.9 8.7 5.6 2.4 0.4 5.8 0.9 7.4 1 1.6 0.2 4.8-0.5 7-1.5 2.2-0.9 5-1.9 6.3-2.3 1.3-0.4 3.9 0.3 6.7 1.7 2.5 1.2 5.1 3.3 5.8 4.6 0.6 1.3 1.2 4 1.1 6 0 2.4-1.2 5.2-3.6 8.6-2.2 3.1-4.8 5.5-6.9 6.3-2 0.7-7.9 1.2-14.1 1.2-7.5 0-13.2-0.6-18.6-2-7.6-2-7.8-2.1-16.5-11.3-4.9-5-9.1-10.3-9.4-11.7-0.3-1.4-1-2.9-1.4-3.5-0.5-0.6-1.1-6.2-1.3-12.5-0.2-6.3 0.1-13.5 0.7-16 0.5-2.5 2-6.7 3.2-9.5 1.2-2.7 4.8-8.1 7.9-12 3.1-3.9 5.7-7.3 5.6-7.7 0-0.5 2.4-2 5.3-3.5 2.8-1.6 7.2-3.1 9.7-3.4 2.5-0.3 7-0.5 10-0.4zm-9.7 28.8c-0.1 0.4 2.5 1.2 6 1.7 5.5 0.9 6.3 0.8 7.5-0.7 0.7-1 1.2-2 1.2-2.3 0.1-0.3-1.1-1.1-2.5-1.7-1.4-0.7-4.3-1.3-6.5-1.3-3 0-4.2 0.5-4.7 1.8-0.3 0.9-0.8 2-1 2.5z"/>
</svg>